<svg width="512" height="512" viewBox="0 0 512 512" fill="none" xmlns="http://www.w3.org/2000/svg">
  <defs>
    <linearGradient id="gradient" x1="0%" y1="0%" x2="100%" y2="100%">
      <stop offset="0%" style="stop-color:#3B82F6;stop-opacity:1" />
      <stop offset="100%" style="stop-color:#1D4ED8;stop-opacity:1" />
    </linearGradient>
  </defs>
  
  <!-- Background Circle -->
  <circle cx="256" cy="256" r="240" fill="url(#gradient)" stroke="#1E40AF" stroke-width="8"/>
  
  <!-- Document Base -->
  <rect x="160" y="120" width="192" height="272" rx="12" ry="12" fill="white" stroke="#E5E7EB" stroke-width="2"/>
  
  <!-- Document Header -->
  <rect x="160" y="120" width="192" height="48" rx="12" ry="12" fill="#F3F4F6"/>
  
  <!-- Header Lines -->
  <rect x="180" y="140" width="80" height="4" rx="2" fill="#6B7280"/>
  <rect x="180" y="150" width="60" height="3" rx="1.5" fill="#9CA3AF"/>
  
  <!-- Content Lines -->
  <rect x="180" y="190" width="140" height="3" rx="1.5" fill="#D1D5DB"/>
  <rect x="180" y="210" width="120" height="3" rx="1.5" fill="#D1D5DB"/>
  <rect x="180" y="230" width="100" height="3" rx="1.5" fill="#D1D5DB"/>
  <rect x="180" y="250" width="130" height="3" rx="1.5" fill="#D1D5DB"/>
  <rect x="180" y="270" width="90" height="3" rx="1.5" fill="#D1D5DB"/>
  <rect x="180" y="290" width="110" height="3" rx="1.5" fill="#D1D5DB"/>
  <rect x="180" y="310" width="85" height="3" rx="1.5" fill="#D1D5DB"/>
  <rect x="180" y="330" width="125" height="3" rx="1.5" fill="#D1D5DB"/>
  
  <!-- Bullet Points -->
  <circle cx="170" cy="192" r="2" fill="#6B7280"/>
  <circle cx="170" cy="212" r="2" fill="#6B7280"/>
  <circle cx="170" cy="232" r="2" fill="#6B7280"/>
  <circle cx="170" cy="252" r="2" fill="#6B7280"/>
  
  <!-- Professional Accent -->
  <rect x="160" y="350" width="192" height="42" rx="12" ry="12" fill="#FEF3C7"/>
  <rect x="180" y="365" width="100" height="3" rx="1.5" fill="#D97706"/>
  <rect x="180" y="375" width="80" height="3" rx="1.5" fill="#F59E0B"/>
</svg>
